<mxfile host="app.diagrams.net" agent="Mozilla/5.0 (X11; Linux x86_64; rv:109.0) Gecko/20100101 Firefox/115.0" version="24.7.16">
  <diagram name="Page-1" id="pIJ1ZQ_ZNmlC9Ujet68F">
    <mxGraphModel dx="1434" dy="871" grid="1" gridSize="10" guides="1" tooltips="1" connect="1" arrows="1" fold="1" page="1" pageScale="1" pageWidth="1169" pageHeight="827" math="0" shadow="0">
      <root>
        <mxCell id="0" />
        <mxCell id="1" parent="0" />
        <mxCell id="eHIUNc-x5sywKQnBYC1u-14" value="" style="verticalLabelPosition=top;verticalAlign=bottom;html=1;shape=mxgraph.basic.rect;fillColor2=none;strokeWidth=3;size=20;indent=100;fillColor=#d5e8d4;strokeColor=#82b366;align=right;horizontal=1;labelPosition=left;labelBackgroundColor=#ffffff;" vertex="1" parent="1">
          <mxGeometry x="600" y="610" width="399" height="310" as="geometry" />
        </mxCell>
        <mxCell id="eHIUNc-x5sywKQnBYC1u-15" value="&lt;b&gt;Instruccions abans de la sentència DO-WHILE&lt;br&gt;&lt;/b&gt;" style="rounded=0;whiteSpace=wrap;html=1;fillColor=#ffe6cc;strokeColor=#d79b00;strokeWidth=3;" vertex="1" parent="1">
          <mxGeometry x="676" y="440" width="196" height="60" as="geometry" />
        </mxCell>
        <mxCell id="eHIUNc-x5sywKQnBYC1u-17" value="" style="endArrow=classic;html=1;rounded=0;fillColor=#dae8fc;strokeColor=#6c8ebf;strokeWidth=3;" edge="1" parent="1" source="eHIUNc-x5sywKQnBYC1u-15" target="eHIUNc-x5sywKQnBYC1u-18">
          <mxGeometry width="50" height="50" relative="1" as="geometry">
            <mxPoint x="750" y="850" as="sourcePoint" />
            <mxPoint x="774" y="650" as="targetPoint" />
          </mxGeometry>
        </mxCell>
        <mxCell id="eHIUNc-x5sywKQnBYC1u-18" value="&lt;div align=&quot;left&quot;&gt;&lt;b&gt;Bloc de codi de la sentència DO-WHILE&lt;/b&gt;&lt;br&gt;&lt;br&gt;&lt;b&gt;Actualització de les variables que afecten la condició&lt;/b&gt;&lt;br&gt;&lt;/div&gt;" style="rounded=0;whiteSpace=wrap;html=1;fillColor=#ffe6cc;strokeColor=#d79b00;strokeWidth=3;" vertex="1" parent="1">
          <mxGeometry x="657" y="630" width="234" height="70" as="geometry" />
        </mxCell>
        <mxCell id="eHIUNc-x5sywKQnBYC1u-19" value="&lt;b&gt;true&lt;/b&gt;" style="endArrow=classic;html=1;rounded=0;exitX=0.5;exitY=0;exitDx=0;exitDy=0;exitPerimeter=0;fillColor=#dae8fc;strokeColor=#6c8ebf;curved=0;jumpSize=20;strokeWidth=3;labelBackgroundColor=#d5e8d4;" edge="1" parent="1" source="eHIUNc-x5sywKQnBYC1u-27" target="eHIUNc-x5sywKQnBYC1u-18">
          <mxGeometry x="0.3333" y="24" width="50" height="50" relative="1" as="geometry">
            <mxPoint x="774" y="720" as="sourcePoint" />
            <mxPoint x="770" y="800" as="targetPoint" />
            <mxPoint as="offset" />
          </mxGeometry>
        </mxCell>
        <mxCell id="eHIUNc-x5sywKQnBYC1u-20" value="&lt;b&gt;Instruccions després de la sentència DO-WHILE&lt;br&gt;&lt;/b&gt;" style="rounded=0;whiteSpace=wrap;html=1;fillColor=#ffe6cc;strokeColor=#d79b00;strokeWidth=3;" vertex="1" parent="1">
          <mxGeometry x="676" y="1010" width="196" height="60" as="geometry" />
        </mxCell>
        <mxCell id="eHIUNc-x5sywKQnBYC1u-22" value="" style="endArrow=classic;html=1;rounded=0;exitX=1;exitY=0.5;exitDx=0;exitDy=0;edgeStyle=orthogonalEdgeStyle;entryX=1;entryY=0.5;entryDx=0;entryDy=0;strokeWidth=3;fillColor=#dae8fc;strokeColor=#6c8ebf;labelBackgroundColor=#d5e8d4;entryPerimeter=0;" edge="1" parent="1" source="eHIUNc-x5sywKQnBYC1u-18" target="eHIUNc-x5sywKQnBYC1u-27">
          <mxGeometry x="-0.8261" y="15" width="50" height="50" relative="1" as="geometry">
            <mxPoint x="844" y="685" as="sourcePoint" />
            <mxPoint x="1010" y="760" as="targetPoint" />
            <Array as="points">
              <mxPoint x="970" y="665" />
              <mxPoint x="970" y="825" />
            </Array>
            <mxPoint as="offset" />
          </mxGeometry>
        </mxCell>
        <mxCell id="eHIUNc-x5sywKQnBYC1u-23" value="&lt;b&gt;Sentència do-while&lt;/b&gt;" style="text;html=1;align=center;verticalAlign=middle;resizable=0;points=[];autosize=1;strokeColor=none;fillColor=none;" vertex="1" parent="1">
          <mxGeometry x="869" y="580" width="130" height="30" as="geometry" />
        </mxCell>
        <mxCell id="eHIUNc-x5sywKQnBYC1u-24" value="&lt;b&gt;1&lt;/b&gt;" style="ellipse;whiteSpace=wrap;html=1;aspect=fixed;fillColor=#f8cecc;strokeColor=#b85450;" vertex="1" parent="1">
          <mxGeometry x="850" y="480" width="30" height="30" as="geometry" />
        </mxCell>
        <mxCell id="eHIUNc-x5sywKQnBYC1u-25" value="&lt;span&gt;2&lt;/span&gt;" style="ellipse;whiteSpace=wrap;html=1;aspect=fixed;fillColor=#f8cecc;strokeColor=#b85450;fontStyle=1" vertex="1" parent="1">
          <mxGeometry x="872" y="680" width="30" height="30" as="geometry" />
        </mxCell>
        <mxCell id="eHIUNc-x5sywKQnBYC1u-26" value="&lt;b&gt;3&lt;/b&gt;" style="ellipse;whiteSpace=wrap;html=1;aspect=fixed;fillColor=#f8cecc;strokeColor=#b85450;" vertex="1" parent="1">
          <mxGeometry x="850" y="1050" width="30" height="30" as="geometry" />
        </mxCell>
        <mxCell id="eHIUNc-x5sywKQnBYC1u-29" value="&lt;b&gt;false&lt;/b&gt;" style="edgeStyle=orthogonalEdgeStyle;rounded=0;orthogonalLoop=1;jettySize=auto;html=1;entryX=0.5;entryY=0;entryDx=0;entryDy=0;strokeWidth=3;fillColor=#dae8fc;strokeColor=#6c8ebf;labelBorderColor=none;labelBackgroundColor=#d5e8d4;" edge="1" parent="1" source="eHIUNc-x5sywKQnBYC1u-27" target="eHIUNc-x5sywKQnBYC1u-20">
          <mxGeometry x="-0.7895" y="16" relative="1" as="geometry">
            <mxPoint as="offset" />
          </mxGeometry>
        </mxCell>
        <mxCell id="eHIUNc-x5sywKQnBYC1u-27" value="&lt;b&gt;condition&lt;/b&gt;" style="strokeWidth=3;html=1;shape=mxgraph.flowchart.decision;whiteSpace=wrap;fillColor=#dae8fc;strokeColor=#6c8ebf;" vertex="1" parent="1">
          <mxGeometry x="704" y="790" width="140" height="70" as="geometry" />
        </mxCell>
      </root>
    </mxGraphModel>
  </diagram>
</mxfile>
